<svg xmlns="http://www.w3.org/2000/svg" version="1.1" xmlns:xlink="http://www.w3.org/1999/xlink" xmlns:svgjs="http://svgjs.com/svgjs" width="1440" height="560" preserveAspectRatio="none" viewBox="0 0 1440 560"><g mask="url(&quot;#SvgjsMask1002&quot;)" fill="none"><rect width="1440" height="560" x="0" y="0" fill="#00fff"></rect><path d="M0,333.458C79.497,340.109,158.36,391.011,232.719,362.117C309.932,332.114,368.116,258.686,394.503,180.164C419.943,104.457,386.417,25.084,372.397,-53.543C358.891,-129.286,370.252,-219.617,313.883,-271.981C257.637,-324.231,168.844,-310.212,92.161,-313.871C31.303,-316.775,-26.305,-305.64,-85.456,-291.036C-147.371,-275.749,-221.074,-275.914,-261.466,-226.562C-301.773,-177.315,-271.021,-102.508,-289.578,-41.635C-313.055,35.379,-401.27,96.725,-383.989,175.362C-367.166,251.914,-281.447,295.326,-208.971,325.166C-143.176,352.255,-70.905,327.526,0,333.458" fill="#ff091b"></path><path d="M1440 1005.7570000000001C1521.181 992.929 1568.91 911.9739999999999 1633.713 861.423 1691.567 816.2919999999999 1761.688 786.917 1800.422 724.5989999999999 1842.115 657.521 1857.509 578.808 1858.46 499.835 1859.535 410.55899999999997 1868.027 307.098 1806.225 242.664 1744.466 178.27499999999998 1640.075 191.44600000000003 1551.604 179.911 1476.347 170.099 1401.798 160.574 1328.535 180.38400000000001 1254.154 200.497 1187.907 240.05200000000002 1132.225 293.311 1072.371 350.56100000000004 1010.275 414.53999999999996 998.0799999999999 496.462 985.867 578.504 1031.776 655.25 1067.18 730.261 1102.162 804.379 1136.5810000000001 880.856 1202.496 929.5640000000001 1270.745 979.9970000000001 1356.179 1019.002 1440 1005.7570000000001" fill="#ff8d95"></path></g><defs><mask id="SvgjsMask1002"><rect width="1440" height="560" fill="#ffffff"></rect></mask></defs></svg>