<svg xmlns="http://www.w3.org/2000/svg" viewBox="0 0 1440 320"><path fill="#ff4b58" fill-opacity="1" d="M0,128L14.1,144C28.2,160,56,192,85,186.7C112.9,181,141,139,169,138.7C197.6,139,226,181,254,197.3C282.4,213,311,203,339,208C367.1,213,395,235,424,202.7C451.8,171,480,85,508,85.3C536.5,85,565,171,593,202.7C621.2,235,649,213,678,202.7C705.9,192,734,192,762,208C790.6,224,819,256,847,250.7C875.3,245,904,203,932,197.3C960,192,988,224,1016,213.3C1044.7,203,1073,149,1101,117.3C1129.4,85,1158,75,1186,101.3C1214.1,128,1242,192,1271,208C1298.8,224,1327,192,1355,165.3C1383.5,139,1412,117,1426,106.7L1440,96L1440,0L1425.9,0C1411.8,0,1384,0,1355,0C1327.1,0,1299,0,1271,0C1242.4,0,1214,0,1186,0C1157.6,0,1129,0,1101,0C1072.9,0,1045,0,1016,0C988.2,0,960,0,932,0C903.5,0,875,0,847,0C818.8,0,791,0,762,0C734.1,0,706,0,678,0C649.4,0,621,0,593,0C564.7,0,536,0,508,0C480,0,452,0,424,0C395.3,0,367,0,339,0C310.6,0,282,0,254,0C225.9,0,198,0,169,0C141.2,0,113,0,85,0C56.5,0,28,0,14,0L0,0Z"></path></svg>